# xmcd
#
# Track frame offsets:
#	150
#	11325
#	23402
#	36227
#	55427
#	63227
#	72017
#	82967
#	93017
#	104942
#	120168
#	133743
#	147843
#	164648
#	179497
#	194572
#	206421
#	215496
#	229895
#	250070
#	261395
#	269495
#	280519
#	290944
#	303694
#	314494
#	322669
#	333440
#	347305
#
# Disc length: 4764 seconds
#
# Revision: 1
# Processed by: cddbd v1.5.2PL0 Copyright (c) Steve Scherf et al.
# Submitted via: audiograbber 1.83.01
#
DISCID=b2129a1d
DTITLE=shakebabyshake - Spoonful #11 - We Got More Soul
DYEAR=1900
DGENRE=Soul
TTITLE0=Frank Frost - My Back Scratcher
TTITLE1=Isley Brothers - Take Inventory
TTITLE2=Jim Gilstrap - One More Heartache
TTITLE3=Donnie Frits - Sumpin' Funky Going On
TTITLE4=Charles Sheffield - It's Your Voo Doo Working
TTITLE5=The Revels - Intoxica
TTITLE6=Henry Strogin - Old Folks Boogie While The Young Ones Twist
TTITLE7=John Lee Hooker - Dimples
TTITLE8=T-Bone Walker - If You Don't Come Back
TTITLE9=Junior Wells - (I Got A) Stomach Ache
TTITLE10=Lee Dorsey - Who's Gonna Help Brother Get Further
TTITLE11=Rufus Thomas - Itch and Scratch Pt.1
TTITLE12=Joe Bataan - Chic-A- Boom
TTITLE13=Booker T. and The MG's - Chicken Pox
TTITLE14=Los Dynamicos Exciters - Let Me Do My Thing
TTITLE15=Dyke and The Blazers - We Got More Soul
TTITLE16=Southern Culture On The Skids - White Trash
TTITLE17=Willy De Ville - Daddy Rollin' Stone
TTITLE18=Barrence Whitfield - Chilling
TTITLE19=Little Boy Blues - I Can Only Give You Everything
TTITLE20=Rolling Stones - Susie Q
TTITLE21=John Mayall and The Bluesbreakers - Steppin' Out
TTITLE22=Willy and The Mighty Magnificents - I KnowThe Scare
TTITLE23=Al Wilson - How's Your Love Life
TTITLE24=Billy Hambrick - New York City Babe
TTITLE25=Bobby James - Goin' Back To Philly
TTITLE26=Keith Kessler - Don't Crowd Me
TTITLE27=The Soul Searchers - Blow Your Whistle
TTITLE28=The Vice Barons - Shaft In Matongue
EXTD=
EXTT0=
EXTT1=
EXTT2=
EXTT3=
EXTT4=
EXTT5=
EXTT6=
EXTT7=
EXTT8=
EXTT9=
EXTT10=
EXTT11=
EXTT12=
EXTT13=
EXTT14=
EXTT15=
EXTT16=
EXTT17=
EXTT18=
EXTT19=
EXTT20=
EXTT21=
EXTT22=
EXTT23=
EXTT24=
EXTT25=
EXTT26=
EXTT27=
EXTT28=
PLAYORDER=
